{
    "asset" : {
        "generator" : "Khronos glTF Blender I/O v3.2.43",
        "version" : "2.0"
    },
    "scene" : 0,
    "scenes" : [
        {
            "name" : "Scene",
            "nodes" : [
                0,
                1,
                2,
                3,
                4,
                5,
                6,
                7
            ]
        }
    ],
    "nodes" : [
        {
            "mesh" : 0,
            "name" : "stair_floor2",
            "rotation" : [
                0.7071068286895752,
                0,
                0,
                0.7071067094802856
            ],
            "translation" : [
                0.025753900408744812,
                0.3520539700984955,
                -0.7798013687133789
            ]
        },
        {
            "mesh" : 1,
            "name" : "sofa_floor2",
            "rotation" : [
                0.7071068286895752,
                0,
                0,
                0.7071067094802856
            ],
            "translation" : [
                0.7705832719802856,
                0.3511236608028412,
                0.7009876370429993
            ]
        },
        {
            "mesh" : 2,
            "name" : "toilet_floor2",
            "rotation" : [
                0.7071068286895752,
                0,
                0,
                0.7071067094802856
            ],
            "translation" : [
                0.7811403870582581,
                0.8446885347366333,
                -1.7691341638565063
            ]
        },
        {
            "mesh" : 3,
            "name" : "floor2_Geo",
            "rotation" : [
                0.7071068286895752,
                0,
                0,
                0.7071067094802856
            ],
            "translation" : [
                0.387614369392395,
                0.7207366228103638,
                -0.5832107067108154
            ]
        },
        {
            "mesh" : 4,
            "name" : "chair_floor2",
            "rotation" : [
                0.7071068286895752,
                0,
                0,
                0.7071067094802856
            ],
            "translation" : [
                0.7343159317970276,
                0.4214107096195221,
                -0.10654067993164062
            ]
        },
        {
            "mesh" : 5,
            "name" : "metal_floor2",
            "rotation" : [
                0.7071068286895752,
                0,
                0,
                0.7071067094802856
            ],
            "translation" : [
                0.6726869940757751,
                0.6978340744972229,
                0.1146644651889801
            ]
        },
        {
            "mesh" : 6,
            "name" : "mirror_floor2",
            "rotation" : [
                0.7071068286895752,
                0,
                0,
                0.7071067094802856
            ],
            "translation" : [
                0.4310649037361145,
                0.8086179494857788,
                0.11262279748916626
            ]
        },
        {
            "mesh" : 7,
            "name" : "bed_floor2",
            "rotation" : [
                0.7071068286895752,
                0,
                0,
                0.7071067094802856
            ],
            "translation" : [
                -0.3994194269180298,
                0.4627055525779724,
                0.36473774909973145
            ]
        }
    ],
    "materials" : [
        {
            "doubleSided" : true,
            "name" : "Baked_Stair",
            "pbrMetallicRoughness" : {
                "baseColorTexture" : {
                    "index" : 0
                },
                "metallicFactor" : 0,
                "roughnessFactor" : 0.5
            }
        },
        {
            "doubleSided" : true,
            "name" : "sofa_floor2_tex.002",
            "pbrMetallicRoughness" : {
                "baseColorTexture" : {
                    "index" : 1
                },
                "metallicFactor" : 0,
                "roughnessFactor" : 0.5527864098548889
            }
        },
        {
            "doubleSided" : true,
            "name" : "baked_Toilet",
            "pbrMetallicRoughness" : {
                "baseColorTexture" : {
                    "index" : 2
                },
                "metallicFactor" : 0,
                "roughnessFactor" : 0.5
            }
        },
        {
            "doubleSided" : true,
            "name" : "baked",
            "pbrMetallicRoughness" : {
                "baseColorTexture" : {
                    "index" : 3
                },
                "metallicFactor" : 0
            }
        },
        {
            "doubleSided" : true,
            "name" : "baked_Props1",
            "pbrMetallicRoughness" : {
                "baseColorTexture" : {
                    "index" : 4
                },
                "metallicFactor" : 0,
                "roughnessFactor" : 0.5
            }
        },
        {
            "doubleSided" : true,
            "name" : "baked_SteelFrame",
            "pbrMetallicRoughness" : {
                "baseColorTexture" : {
                    "index" : 5
                },
                "metallicFactor" : 0,
                "roughnessFactor" : 0.5
            }
        },
        {
            "alphaMode" : "BLEND",
            "doubleSided" : true,
            "name" : "baked_Mirror",
            "pbrMetallicRoughness" : {
                "baseColorFactor" : [
                    1,
                    1,
                    1,
                    0.20000000298023224
                ],
                "baseColorTexture" : {
                    "index" : 6
                },
                "metallicFactor" : 0,
                "roughnessFactor" : 0.5
            }
        },
        {
            "doubleSided" : true,
            "name" : "baked_Bed",
            "pbrMetallicRoughness" : {
                "baseColorTexture" : {
                    "index" : 7
                },
                "metallicFactor" : 0
            }
        }
    ],
    "meshes" : [
        {
            "name" : "Mesh",
            "primitives" : [
                {
                    "attributes" : {
                        "POSITION" : 0,
                        "NORMAL" : 1,
                        "TEXCOORD_0" : 2
                    },
                    "indices" : 3,
                    "material" : 0
                }
            ]
        },
        {
            "name" : "Mesh.001",
            "primitives" : [
                {
                    "attributes" : {
                        "POSITION" : 4,
                        "NORMAL" : 5,
                        "TEXCOORD_0" : 6
                    },
                    "indices" : 7,
                    "material" : 1
                }
            ]
        },
        {
            "name" : "Mesh.002",
            "primitives" : [
                {
                    "attributes" : {
                        "POSITION" : 8,
                        "NORMAL" : 9,
                        "TEXCOORD_0" : 10
                    },
                    "indices" : 11,
                    "material" : 2
                }
            ]
        },
        {
            "name" : "Mesh.003",
            "primitives" : [
                {
                    "attributes" : {
                        "POSITION" : 12,
                        "NORMAL" : 13,
                        "TEXCOORD_0" : 14
                    },
                    "indices" : 15,
                    "material" : 3
                }
            ]
        },
        {
            "name" : "Mesh.004",
            "primitives" : [
                {
                    "attributes" : {
                        "POSITION" : 16,
                        "NORMAL" : 17,
                        "TEXCOORD_0" : 18
                    },
                    "indices" : 19,
                    "material" : 4
                }
            ]
        },
        {
            "name" : "Mesh.005",
            "primitives" : [
                {
                    "attributes" : {
                        "POSITION" : 20,
                        "NORMAL" : 21,
                        "TEXCOORD_0" : 22
                    },
                    "indices" : 23,
                    "material" : 5
                }
            ]
        },
        {
            "name" : "Mesh.006",
            "primitives" : [
                {
                    "attributes" : {
                        "POSITION" : 24,
                        "NORMAL" : 25,
                        "TEXCOORD_0" : 26
                    },
                    "indices" : 27,
                    "material" : 6
                }
            ]
        },
        {
            "name" : "Mesh.007",
            "primitives" : [
                {
                    "attributes" : {
                        "POSITION" : 28,
                        "NORMAL" : 29,
                        "TEXCOORD_0" : 30
                    },
                    "indices" : 31,
                    "material" : 7
                }
            ]
        }
    ],
    "textures" : [
        {
            "sampler" : 0,
            "source" : 0
        },
        {
            "sampler" : 0,
            "source" : 1
        },
        {
            "sampler" : 0,
            "source" : 2
        },
        {
            "sampler" : 0,
            "source" : 3
        },
        {
            "sampler" : 0,
            "source" : 4
        },
        {
            "sampler" : 0,
            "source" : 5
        },
        {
            "sampler" : 0,
            "source" : 6
        },
        {
            "sampler" : 0,
            "source" : 7
        }
    ],
    "images" : [
        {
            "mimeType" : "image/webp",
            "name" : "baked_Stair02",
            "uri" : "TextureBaked/baked_Stair02.webp"
        },
        {
            "mimeType" : "image/webp",
            "name" : "allfloor2_sofa_floor2_tex_BaseColor",
            "uri" : "TextureBaked/allfloor2_sofa_floor2_tex_BaseColor.webp"
        },
        {
            "mimeType" : "image/webp",
            "name" : "baked_Toilet",
            "uri" : "TextureBaked/baked_Toilet.webp"
        },
        {
            "mimeType" : "image/webp",
            "name" : "baked_Flooredit02",
            "uri" : "TextureBaked/baked_Flooredit02.webp"
        },
        {
            "mimeType" : "image/webp",
            "name" : "baked_Props1",
            "uri" : "TextureBaked/baked_Props1.webp"
        },
        {
            "mimeType" : "image/webp",
            "name" : "baked_SteelFrame",
            "uri" : "TextureBaked/baked_SteelFrame.webp"
        },
        {
            "mimeType" : "image/webp",
            "name" : "baked_Mirror",
            "uri" : "TextureBaked/baked_Mirror.webp"
        },
        {
            "mimeType" : "image/webp",
            "name" : "baked_Bed02",
            "uri" : "TextureBaked/baked_Bed02.webp"
        }
    ],
    "accessors" : [
        {
            "bufferView" : 0,
            "componentType" : 5126,
            "count" : 1507,
            "max" : [
                3.6009137630462646,
                0.9767832159996033,
                1.7719929218292236
            ],
            "min" : [
                -3.2353627681732178,
                -2.1275851726531982,
                -1.2230931520462036
            ],
            "type" : "VEC3"
        },
        {
            "bufferView" : 1,
            "componentType" : 5126,
            "count" : 1507,
            "type" : "VEC3"
        },
        {
            "bufferView" : 2,
            "componentType" : 5126,
            "count" : 1507,
            "type" : "VEC2"
        },
        {
            "bufferView" : 3,
            "componentType" : 5123,
            "count" : 3537,
            "type" : "SCALAR"
        },
        {
            "bufferView" : 4,
            "componentType" : 5126,
            "count" : 2157,
            "max" : [
                2.052083730697632,
                0.7904603481292725,
                0.28932297229766846
            ],
            "min" : [
                -3.67354416847229,
                -2.692713499069214,
                -0.2278023064136505
            ],
            "type" : "VEC3"
        },
        {
            "bufferView" : 5,
            "componentType" : 5126,
            "count" : 2157,
            "type" : "VEC3"
        },
        {
            "bufferView" : 6,
            "componentType" : 5126,
            "count" : 2157,
            "type" : "VEC2"
        },
        {
            "bufferView" : 7,
            "componentType" : 5123,
            "count" : 5529,
            "type" : "SCALAR"
        },
        {
            "bufferView" : 8,
            "componentType" : 5126,
            "count" : 3957,
            "max" : [
                1.5918474197387695,
                1.1136201620101929,
                0.7719493508338928
            ],
            "min" : [
                -2.075068950653076,
                -0.690377414226532,
                -0.48285481333732605
            ],
            "type" : "VEC3"
        },
        {
            "bufferView" : 9,
            "componentType" : 5126,
            "count" : 3957,
            "type" : "VEC3"
        },
        {
            "bufferView" : 10,
            "componentType" : 5126,
            "count" : 3957,
            "type" : "VEC2"
        },
        {
            "bufferView" : 11,
            "componentType" : 5123,
            "count" : 10776,
            "type" : "SCALAR"
        },
        {
            "bufferView" : 12,
            "componentType" : 5126,
            "count" : 2195,
            "max" : [
                3.3111226558685303,
                3.5581369400024414,
                2.140678644180298
            ],
            "min" : [
                -3.7335023880004883,
                -2.394538640975952,
                -1.0960097312927246
            ],
            "type" : "VEC3"
        },
        {
            "bufferView" : 13,
            "componentType" : 5126,
            "count" : 2195,
            "type" : "VEC3"
        },
        {
            "bufferView" : 14,
            "componentType" : 5126,
            "count" : 2195,
            "type" : "VEC2"
        },
        {
            "bufferView" : 15,
            "componentType" : 5123,
            "count" : 5100,
            "type" : "SCALAR"
        },
        {
            "bufferView" : 16,
            "componentType" : 5126,
            "count" : 2372,
            "max" : [
                2.2806026935577393,
                1.7020882368087769,
                0.40717214345932007
            ],
            "min" : [
                -2.0486321449279785,
                -2.105490207672119,
                -0.9018233418464661
            ],
            "type" : "VEC3"
        },
        {
            "bufferView" : 17,
            "componentType" : 5126,
            "count" : 2372,
            "type" : "VEC3"
        },
        {
            "bufferView" : 18,
            "componentType" : 5126,
            "count" : 2372,
            "type" : "VEC2"
        },
        {
            "bufferView" : 19,
            "componentType" : 5123,
            "count" : 6588,
            "type" : "SCALAR"
        },
        {
            "bufferView" : 20,
            "componentType" : 5126,
            "count" : 2965,
            "max" : [
                2.8357725143432617,
                2.847855806350708,
                1.1354306936264038
            ],
            "min" : [
                -3.9734067916870117,
                -2.976611614227295,
                -0.9394312500953674
            ],
            "type" : "VEC3"
        },
        {
            "bufferView" : 21,
            "componentType" : 5126,
            "count" : 2965,
            "type" : "VEC3"
        },
        {
            "bufferView" : 22,
            "componentType" : 5126,
            "count" : 2965,
            "type" : "VEC2"
        },
        {
            "bufferView" : 23,
            "componentType" : 5123,
            "count" : 5784,
            "type" : "SCALAR"
        },
        {
            "bufferView" : 24,
            "componentType" : 5126,
            "count" : 656,
            "max" : [
                3.030510425567627,
                2.840144395828247,
                1.2678409814834595
            ],
            "min" : [
                -3.7054638862609863,
                -2.9748003482818604,
                -0.7266885638237
            ],
            "type" : "VEC3"
        },
        {
            "bufferView" : 25,
            "componentType" : 5126,
            "count" : 656,
            "type" : "VEC3"
        },
        {
            "bufferView" : 26,
            "componentType" : 5126,
            "count" : 656,
            "type" : "VEC2"
        },
        {
            "bufferView" : 27,
            "componentType" : 5123,
            "count" : 1056,
            "type" : "SCALAR"
        },
        {
            "bufferView" : 28,
            "componentType" : 5126,
            "count" : 8193,
            "max" : [
                3.710649251937866,
                1.4431473016738892,
                0.3980638384819031
            ],
            "min" : [
                -2.7944142818450928,
                -2.8022778034210205,
                -0.17698532342910767
            ],
            "type" : "VEC3"
        },
        {
            "bufferView" : 29,
            "componentType" : 5126,
            "count" : 8193,
            "type" : "VEC3"
        },
        {
            "bufferView" : 30,
            "componentType" : 5126,
            "count" : 8193,
            "type" : "VEC2"
        },
        {
            "bufferView" : 31,
            "componentType" : 5123,
            "count" : 30372,
            "type" : "SCALAR"
        }
    ],
    "bufferViews" : [
        {
            "buffer" : 0,
            "byteLength" : 18084,
            "byteOffset" : 0
        },
        {
            "buffer" : 0,
            "byteLength" : 18084,
            "byteOffset" : 18084
        },
        {
            "buffer" : 0,
            "byteLength" : 12056,
            "byteOffset" : 36168
        },
        {
            "buffer" : 0,
            "byteLength" : 7074,
            "byteOffset" : 48224
        },
        {
            "buffer" : 0,
            "byteLength" : 25884,
            "byteOffset" : 55300
        },
        {
            "buffer" : 0,
            "byteLength" : 25884,
            "byteOffset" : 81184
        },
        {
            "buffer" : 0,
            "byteLength" : 17256,
            "byteOffset" : 107068
        },
        {
            "buffer" : 0,
            "byteLength" : 11058,
            "byteOffset" : 124324
        },
        {
            "buffer" : 0,
            "byteLength" : 47484,
            "byteOffset" : 135384
        },
        {
            "buffer" : 0,
            "byteLength" : 47484,
            "byteOffset" : 182868
        },
        {
            "buffer" : 0,
            "byteLength" : 31656,
            "byteOffset" : 230352
        },
        {
            "buffer" : 0,
            "byteLength" : 21552,
            "byteOffset" : 262008
        },
        {
            "buffer" : 0,
            "byteLength" : 26340,
            "byteOffset" : 283560
        },
        {
            "buffer" : 0,
            "byteLength" : 26340,
            "byteOffset" : 309900
        },
        {
            "buffer" : 0,
            "byteLength" : 17560,
            "byteOffset" : 336240
        },
        {
            "buffer" : 0,
            "byteLength" : 10200,
            "byteOffset" : 353800
        },
        {
            "buffer" : 0,
            "byteLength" : 28464,
            "byteOffset" : 364000
        },
        {
            "buffer" : 0,
            "byteLength" : 28464,
            "byteOffset" : 392464
        },
        {
            "buffer" : 0,
            "byteLength" : 18976,
            "byteOffset" : 420928
        },
        {
            "buffer" : 0,
            "byteLength" : 13176,
            "byteOffset" : 439904
        },
        {
            "buffer" : 0,
            "byteLength" : 35580,
            "byteOffset" : 453080
        },
        {
            "buffer" : 0,
            "byteLength" : 35580,
            "byteOffset" : 488660
        },
        {
            "buffer" : 0,
            "byteLength" : 23720,
            "byteOffset" : 524240
        },
        {
            "buffer" : 0,
            "byteLength" : 11568,
            "byteOffset" : 547960
        },
        {
            "buffer" : 0,
            "byteLength" : 7872,
            "byteOffset" : 559528
        },
        {
            "buffer" : 0,
            "byteLength" : 7872,
            "byteOffset" : 567400
        },
        {
            "buffer" : 0,
            "byteLength" : 5248,
            "byteOffset" : 575272
        },
        {
            "buffer" : 0,
            "byteLength" : 2112,
            "byteOffset" : 580520
        },
        {
            "buffer" : 0,
            "byteLength" : 98316,
            "byteOffset" : 582632
        },
        {
            "buffer" : 0,
            "byteLength" : 98316,
            "byteOffset" : 680948
        },
        {
            "buffer" : 0,
            "byteLength" : 65544,
            "byteOffset" : 779264
        },
        {
            "buffer" : 0,
            "byteLength" : 60744,
            "byteOffset" : 844808
        }
    ],
    "samplers" : [
        {
            "magFilter" : 9729,
            "minFilter" : 9987
        }
    ],
    "buffers" : [
        {
            "byteLength" : 905552,
            "uri" : "SH2511_2ndFloorBaked_v03.bin"
        }
    ]
}
